<svg xmlns="http://www.w3.org/2000/svg" width="327" height="119" viewBox="0 0 327 119" fill="none">
<path d="M43.6352 32.7054L43.2782 33.4514L42.9102 32.7054H42.6591V34.0454H42.8321V32.8934L43.2132 33.6794H43.3221L43.7052 32.8934V34.0494H43.8902V32.7093L43.6352 32.7054Z" fill="#141E28"/>
<path d="M42.0546 33.3184C42.0046 33.3054 41.9416 33.2944 41.8686 33.2814L41.6996 33.2523C41.6417 33.243 41.5878 33.217 41.5446 33.1774C41.5131 33.1417 41.4969 33.095 41.4996 33.0474C41.4993 33.0162 41.5073 32.9856 41.5228 32.9585C41.5382 32.9315 41.5606 32.9089 41.5876 32.8933C41.6593 32.8505 41.7422 32.83 41.8256 32.8344C41.9151 32.8345 42.0039 32.8493 42.0886 32.8783C42.1638 32.9007 42.2343 32.9367 42.2966 32.9844H42.3096V32.7724C42.2395 32.744 42.1668 32.7226 42.0926 32.7084C42.0057 32.6885 41.9167 32.679 41.8276 32.6803C41.6945 32.6749 41.5633 32.7128 41.4536 32.7884C41.4078 32.818 41.3703 32.8588 41.3446 32.9069C41.3189 32.955 41.3058 33.0088 41.3066 33.0634C41.3044 33.1071 41.3111 33.1508 41.3262 33.1919C41.3413 33.233 41.3646 33.2705 41.3946 33.3024C41.4704 33.3715 41.5651 33.4165 41.6666 33.4314C41.7276 33.4434 41.7856 33.4523 41.8396 33.4603C41.8936 33.4683 41.9396 33.4784 41.9896 33.4894C42.0399 33.5001 42.0869 33.5227 42.1266 33.5553C42.1423 33.5733 42.1542 33.5943 42.1616 33.617C42.169 33.6396 42.1717 33.6636 42.1696 33.6874C42.17 33.7209 42.1614 33.7538 42.1449 33.783C42.1284 33.8121 42.1045 33.8365 42.0756 33.8534C41.995 33.899 41.903 33.9205 41.8106 33.9154C41.7227 33.9134 41.6356 33.8976 41.5526 33.8684C41.4656 33.8386 41.3839 33.795 41.3106 33.7394H41.2976V33.9613C41.3764 33.9959 41.4585 34.0224 41.5426 34.0404C41.6304 34.0607 41.7205 34.0701 41.8106 34.0684C41.8911 34.0696 41.9714 34.0585 42.0486 34.0354C42.111 34.0157 42.1696 33.9851 42.2216 33.9453C42.2647 33.9109 42.299 33.8667 42.3216 33.8164C42.3467 33.7683 42.3597 33.7147 42.3596 33.6604C42.3622 33.6199 42.3567 33.5791 42.3435 33.5407C42.3303 33.5022 42.3096 33.4668 42.2826 33.4364C42.2176 33.3755 42.1369 33.334 42.0496 33.3164" fill="#141E28"/>
<path d="M38.5685 30.694H4.50353C4.27949 30.694 4.05764 30.7381 3.85066 30.8239C3.64368 30.9096 3.45563 31.0354 3.29725 31.1939C3.13887 31.3523 3.01327 31.5405 2.92762 31.7475C2.84197 31.9546 2.79796 32.1763 2.79809 32.4004C2.79796 32.6245 2.84196 32.8464 2.9276 33.0535C3.01324 33.2606 3.13882 33.4488 3.29719 33.6074C3.45555 33.7659 3.64359 33.8918 3.85058 33.9776C4.05757 34.0635 4.27944 34.1077 4.50353 34.1078H38.5685C38.7927 34.1078 39.0146 34.0637 39.2217 33.9779C39.4288 33.8921 39.617 33.7663 39.7755 33.6078C39.9339 33.4492 40.0596 33.2609 40.1453 33.0537C40.231 32.8466 40.2751 32.6246 40.2749 32.4004C40.2751 32.1763 40.231 31.9544 40.1453 31.7473C40.0596 31.5402 39.9339 31.352 39.7754 31.1935C39.6169 31.035 39.4288 30.9093 39.2217 30.8236C39.0146 30.7379 38.7926 30.6939 38.5685 30.694Z" fill="#141E28"/>
<path d="M21.539 5.88408H21.552C22.3185 5.85984 23.0459 5.54004 23.582 4.99167C24.118 4.44329 24.4212 3.70887 24.4281 2.94204C24.4236 2.17174 24.119 1.43345 23.579 0.884112C23.039 0.334775 22.3061 0.0176773 21.536 0H21.512C20.7469 0.0265281 20.0215 0.347609 19.4875 0.896193C18.9534 1.44478 18.6519 2.1784 18.6459 2.94399C18.6507 3.71455 18.9556 4.45295 19.496 5.00228C20.0364 5.55162 20.7696 5.86861 21.54 5.88603" fill="#141E28"/>
<path d="M36.2122 10.5576C35.6128 10.5549 35.015 10.6193 34.4298 10.7495L34.1299 10.8175L33.939 10.5716C33.1757 9.60484 32.1946 8.83232 31.0756 8.31734C29.9567 7.80236 28.7318 7.55955 27.5011 7.60858C25.4625 7.51376 23.4623 8.18519 21.8939 9.49091L21.534 9.8088L21.1851 9.49188C19.6161 8.18577 17.6152 7.51402 15.5759 7.60858C14.345 7.55955 13.12 7.80237 12.0009 8.31734C10.8818 8.83231 9.90048 9.60482 9.13703 10.5716L8.94509 10.8175L8.64519 10.7495C8.06007 10.6193 7.46221 10.5549 6.86277 10.5576C2.1473 10.5576 0 14.4903 0 18.1431C0 21.4231 0.799739 23.3195 4.05668 27.6501H8.75516C4.17065 21.792 3.72479 20.6233 3.72479 18.1431C3.72479 15.7219 4.89841 14.2773 6.86777 14.2773H7.43159L7.35361 14.8362C7.3022 15.1945 7.27548 15.5559 7.27364 15.9179C7.27364 19.8266 8.44726 21.783 13.0438 27.6501H17.7662L16.5546 26.1076C11.4663 19.6517 10.9864 18.491 10.9864 15.9168C10.9864 15.8718 11.0384 11.3293 15.5759 11.3293C19.3387 11.3293 19.6926 13.6675 19.7266 14.1354V27.652H23.3964C23.3964 26.2525 23.3884 24.648 23.3824 22.8826C23.3754 20.8612 23.3674 18.617 23.3634 16.2318V14.0924C23.4564 13.3287 24.0192 11.3324 27.5001 11.3324C32.0356 11.3324 32.0896 15.8739 32.0896 15.9199C32.0896 18.493 31.6097 19.6536 26.5194 26.1105L25.3078 27.653H30.0392C34.6378 21.7859 35.8104 19.8286 35.8104 15.9208C35.8085 15.5589 35.7818 15.1974 35.7304 14.8391L35.6514 14.2804H36.2162C38.1836 14.2804 39.3592 15.7248 39.3592 18.1461C39.3592 20.6263 38.9134 21.7949 34.3279 27.653H39.0263C42.2823 23.3234 43.083 21.427 43.083 18.1461C43.083 14.4932 40.9347 10.5606 36.2202 10.5606" fill="#141E28"/>
<path d="M49.5409 23.2664C49.5082 21.8192 49.7717 20.3805 50.3152 19.0389C50.8588 17.6972 51.6709 16.4808 52.7017 15.4645C53.7324 14.4481 54.9601 13.6532 56.3093 13.1286C57.6585 12.604 59.1007 12.3607 60.5473 12.4138C62.368 12.3415 64.1722 12.7844 65.7524 13.6916C67.3326 14.5988 68.6248 15.9334 69.4804 17.5422L65.6457 19.4326C65.1546 18.5076 64.4201 17.7346 63.5215 17.1968C62.623 16.6591 61.5945 16.3772 60.5473 16.3815C56.8985 16.3815 54.1304 19.3066 54.1304 23.2703C54.1304 27.234 56.8985 30.1581 60.5473 30.1581C61.596 30.1691 62.6272 29.8898 63.527 29.3512C64.4268 28.8126 65.16 28.0355 65.6457 27.1061L69.4834 28.9625C68.6265 30.5723 67.3349 31.909 65.7557 32.8208C64.1764 33.7325 62.3728 34.1826 60.5503 34.1198C59.1037 34.1733 57.6614 33.9305 56.312 33.4062C54.9627 32.8819 53.7348 32.0873 52.7038 31.0711C51.6728 30.0549 50.8604 28.8386 50.3167 27.4969C49.773 26.1553 49.5093 24.7166 49.5419 23.2693" fill="#141E28"/>
<path d="M76.6181 12.7598H72.1516V33.74H76.6181V12.7598Z" fill="#141E28"/>
<path d="M85.6132 16.6926H79.4802V12.7609H96.2128V16.6926H90.1147V33.741H85.6162L85.6132 16.6926Z" fill="#141E28"/>
<path d="M104.923 25.1528L96.8406 12.7568H101.939L107.161 21.1861L112.32 12.7568H117.418L109.394 25.1528V33.74H104.923V25.1528Z" fill="#141E28"/>
<path d="M129.901 26.9522C130.468 23.8702 130.122 20.6932 127.795 20.6932C125.435 20.6932 124.05 23.8692 123.486 26.9522C122.92 30.0032 123.235 33.2102 125.592 33.2102C127.949 33.2102 129.334 30.0022 129.901 26.9522ZM121.126 26.9522C121.785 23.2714 124.24 19.6546 127.918 19.6546C131.285 19.6546 132.917 23.2714 132.26 26.9522C131.599 30.664 129.082 34.2499 125.462 34.2499C122.096 34.2499 120.464 30.665 121.122 26.9522" fill="#141E28"/>
<path d="M129.428 38.5844C129.437 38.2592 129.575 37.9509 129.811 37.7269C130.047 37.503 130.362 37.3817 130.688 37.3898C130.914 37.3885 131.135 37.4615 131.317 37.5973C131.498 37.7332 131.631 37.9247 131.693 38.1426C131.819 38.5204 132.007 38.8353 132.51 38.8353C133.518 38.8353 133.833 38.1755 134.493 34.4367L136.82 21.2561H134.838L135.028 20.1565H137.01C138.016 15.438 139.935 14.1794 142.136 14.1794C143.335 14.1794 144.181 14.8082 144.181 15.595C144.168 15.9189 144.03 16.2252 143.796 16.4491C143.561 16.6729 143.249 16.7968 142.925 16.7945C142.697 16.7958 142.476 16.7227 142.294 16.5865C142.113 16.4502 141.98 16.2582 141.918 16.0398C141.883 15.8469 141.782 15.6723 141.633 15.5457C141.483 15.4191 141.294 15.3485 141.098 15.346C140.099 15.346 139.809 15.8188 139.18 19.4356L139.055 20.1594H141.664L141.475 21.259H138.866L136.601 34.1179C135.848 38.3655 133.676 40 131.474 40C130.275 40 129.429 39.3712 129.429 38.5835" fill="#141E28"/>
<path d="M148.844 23.2665C148.811 21.8191 149.074 20.3803 149.618 19.0385C150.162 17.6967 150.974 16.4801 152.005 15.4637C153.036 14.4473 154.264 13.6525 155.613 13.128C156.963 12.6036 158.405 12.3605 159.852 12.4139C161.673 12.3418 163.477 12.7849 165.057 13.6921C166.637 14.5992 167.929 15.9337 168.785 17.5422L164.947 19.4287C164.456 18.5039 163.722 17.7308 162.823 17.1931C161.925 16.6554 160.896 16.3734 159.849 16.3777C156.2 16.3777 153.433 19.3027 153.433 23.2665C153.433 27.2302 156.2 30.1542 159.849 30.1542C160.898 30.1651 161.929 29.8858 162.829 29.3471C163.728 28.8085 164.462 28.0315 164.947 27.1021L168.785 28.9586C167.928 30.5682 166.637 31.905 165.057 32.8167C163.478 33.7285 161.675 34.1786 159.852 34.1158C158.405 34.1694 156.963 33.9266 155.614 33.4023C154.264 32.878 153.037 32.0834 152.006 31.0672C150.975 30.0509 150.162 28.8346 149.618 27.493C149.075 26.1514 148.811 24.7137 148.844 23.2665Z" fill="#141E28"/>
<path d="M185.83 24.9339H175.921V33.741H171.456V12.7609H175.921V21.0011H185.829V12.7609H190.327V33.741H185.829L185.83 24.9339Z" fill="#141E28"/>
<path d="M199.636 26.2534H206.587L203.126 16.6306L199.636 26.2534ZM207.815 30.1222H198.441L197.121 33.74H192.215L200.33 12.7598H205.928L214.011 33.74H209.141L207.815 30.1222Z" fill="#141E28"/>
<path d="M225.11 16.5975H220.422V22.3857H225.11C225.51 22.419 225.913 22.369 226.293 22.2386C226.673 22.1083 227.022 21.9006 227.317 21.6286C227.613 21.3566 227.849 21.0263 228.01 20.6585C228.171 20.2906 228.255 19.8933 228.255 19.4916C228.255 19.0899 228.171 18.6927 228.01 18.3249C227.849 17.957 227.613 17.6267 227.317 17.3547C227.022 17.0827 226.673 16.875 226.293 16.7447C225.913 16.6144 225.51 16.5642 225.11 16.5975ZM223.694 26.2234H220.422V33.741H215.958V12.7598H225.77C230.142 12.7598 232.816 15.6229 232.816 19.5226C232.905 20.9349 232.493 22.3333 231.653 23.4722C230.814 24.6112 229.599 25.4178 228.224 25.7506L232.942 33.741H227.815L223.694 26.2234Z" fill="#141E28"/>
<path d="M236.178 12.7598H240.644V29.8083H249.514V33.74H236.178V12.7598Z" fill="#141E28"/>
<path d="M261.718 16.3787C257.849 16.3787 255.364 19.3347 255.364 23.2674C255.364 27.1662 257.849 30.1552 261.718 30.1552C265.587 30.1552 268.102 27.1662 268.102 23.2674C268.102 19.3357 265.587 16.3787 261.718 16.3787ZM261.718 12.4139C263.86 12.4324 265.949 13.0846 267.721 14.2882C269.493 15.4917 270.869 17.1928 271.676 19.1772C272.483 21.1615 272.685 23.3404 272.256 25.4391C271.826 27.5378 270.786 29.4626 269.264 30.9709C267.743 32.4791 265.81 33.5033 263.707 33.9146C261.605 34.3259 259.428 34.1057 257.451 33.2819C255.473 32.458 253.784 31.0673 252.596 29.285C251.407 27.5027 250.773 25.4086 250.773 23.2664C250.729 21.8215 250.983 20.383 251.519 19.0404C252.054 17.6978 252.861 16.4797 253.887 15.4618C254.914 14.444 256.139 13.6482 257.486 13.1239C258.833 12.5995 260.274 12.3578 261.718 12.4139Z" fill="#141E28"/>
<path d="M279.926 16.6926H273.793V12.7609H290.526V16.6926H284.428V33.741H279.929L279.926 16.6926Z" fill="#141E28"/>
<path d="M298.23 16.6926H292.096V12.7609H308.83V16.6926H302.732V33.741H298.233L298.23 16.6926Z" fill="#141E28"/>
<path d="M311.689 12.7598V33.741H326.536V29.8713H316.156V24.9969H326.314V21.1591H316.156V16.5975H326.536V12.7598H311.689Z" fill="#141E28"/>
</svg>